<svg width="350" height="350" viewBox="0 0 350 350" fill="none" xmlns="http://www.w3.org/2000/svg">
<path d="M0 116.667H350V300C350 327.614 327.614 350 300 350H50C22.3858 350 0 327.614 0 300V116.667Z" fill="#0066FF"/>
<path d="M175 0L350 116.667H0L175 0Z" fill="#0066FF"/>
<mask id="mask0_4_55" style="mask-type:alpha" maskUnits="userSpaceOnUse" x="0" y="0" width="350" height="350">
<path d="M0 116.667H350V300C350 327.614 327.614 350 300 350H50C22.3858 350 0 327.614 0 300V116.667Z" fill="#0066FF"/>
<path d="M175 0L350 116.667H0L175 0Z" fill="#0066FF"/>
</mask>
<g mask="url(#mask0_4_55)">
<path d="M0 116.667H350V300C350 327.614 327.614 350 300 350H50C22.3858 350 0 327.614 0 300V116.667Z" fill="#0066FF"/>
<path d="M175 0L350 116.667H0L175 0Z" fill="#0066FF"/>
<path d="M262.526 77.6169C320.818 135.909 334.818 214.169 364.53 211.751C368.707 210.739 372.225 208.892 374.981 206.136C391.046 190.071 361.197 112.028 294.656 45.487C228.115 -21.0539 150.071 -50.9026 134.007 -34.8377C131.251 -32.0825 129.404 -28.5643 128.392 -24.3874C125.974 5.32469 204.234 19.3253 262.526 77.6169Z" fill="#F4900C"/>
<path d="M270.558 69.5843C220.653 19.6786 170.747 -1.14957 150.947 -7.96913C145.244 -9.92905 139.87 -5.55136 137.348 -1.03712C134.826 3.47713 5.4868 302.526 5.4868 302.526C5.4868 302.526 -3.38104 325.788 5.4868 334.656C14.3546 343.524 37.6167 334.656 37.6167 334.656L342.248 201.984C342.248 201.984 350.722 196.931 347.549 187.541C340.465 166.625 319.131 118.157 270.558 69.5843Z" fill="#FFCC4D"/>
<path d="M45.6495 294.494C63.3851 276.758 63.3932 247.978 45.6495 230.234C43.6092 228.194 41.4003 226.451 39.0949 224.884L5.48711 302.526C5.48711 302.526 4.93288 304.221 4.26619 306.799C18.7568 309.803 34.412 305.731 45.6495 294.494ZM125.974 198.104C143.718 180.36 143.71 151.58 125.974 133.844C114.52 122.39 98.487 118.438 83.7715 121.779L54.7261 188.77C56.662 192.088 58.8789 195.268 61.7144 198.104C79.4501 215.84 108.238 215.84 125.974 198.104Z" fill="#BE1931"/>
<path d="M182.201 125.812C199.946 143.556 228.716 143.556 246.461 125.812C264.206 108.067 264.206 79.2967 246.461 61.5519C228.716 43.8071 199.946 43.8071 182.201 61.5519C164.456 79.2967 164.456 108.067 182.201 125.812Z" fill="#BE1931"/>
<path d="M278.591 174.006C260.855 156.271 232.075 156.263 214.331 174.006C196.587 191.75 196.596 220.53 214.331 238.266C219.809 243.744 226.396 247.327 233.328 249.423L287.113 226.001C295.395 209.044 292.664 188.079 278.591 174.006ZM101.877 254.331C86.872 269.336 84.7112 292.188 95.0892 309.619L177.422 273.762C175.358 266.669 171.735 259.93 166.136 254.331C148.401 236.595 119.612 236.595 101.877 254.331ZM134.007 77.6168C151.75 59.8731 151.75 31.1008 134.007 13.3571C133.308 12.6582 132.488 12.1602 131.749 11.5176C124.825 27.2773 112.142 56.4272 97.3544 90.4929C110.447 91.7941 123.982 87.6413 134.007 77.6168Z" fill="#BE1931"/>
</g>
<path d="M131 262C131 250.954 139.954 242 151 242H198C209.046 242 218 250.954 218 262V350H131V262Z" fill="#00069C"/>
</svg>
